<?xml version="1.0" standalone="no"?>
<!DOCTYPE svg PUBLIC "-//W3C//DTD SVG 20010904//EN"
 "http://www.w3.org/TR/2001/REC-SVG-20010904/DTD/svg10.dtd">
<svg version="1.0" xmlns="http://www.w3.org/2000/svg"
 width="512.000000pt" height="512.000000pt" viewBox="0 0 512.000000 512.000000"
 preserveAspectRatio="xMidYMid meet">
<metadata>
Created by potrace 1.14, written by Peter Selinger 2001-2017
</metadata>
<g transform="translate(0.000000,512.000000) scale(0.100000,-0.100000)"
fill="#000000" stroke="none">
<path d="M2493 5110 c-13 -5 -23 -7 -23 -4 0 25 -241 -210 -1257 -1228 -644
-645 -1179 -1189 -1189 -1208 -24 -47 -27 -147 -7 -202 13 -35 225 -253 1197
-1226 650 -651 1200 -1195 1224 -1209 54 -32 151 -39 214 -16 35 13 251 224
1226 1197 686 685 1195 1200 1210 1226 23 38 27 56 27 120 0 64 -4 82 -27 120
-34 57 -2370 2392 -2416 2415 -40 19 -148 29 -179 15z m1028 -1849 c241 -242
439 -442 439 -446 0 -9 -875 -885 -884 -885 -3 0 -6 141 -6 314 l0 315 -509
-1 c-374 0 -511 -3 -513 -12 -2 -6 -3 -179 -3 -384 l2 -372 -256 2 -256 3 1
540 0 540 23 45 c30 58 66 96 116 123 40 22 45 22 718 25 l677 3 0 314 c0 173
3 315 6 315 3 0 203 -198 445 -439z"/>
</g>
</svg>
