<svg width="17" height="17" viewBox="0 0 17 17" fill="none" xmlns="http://www.w3.org/2000/svg">
<path d="M8.25 5.25C6.5925 5.25 5.25 6.5925 5.25 8.25C5.25 9.9075 6.5925 11.25 8.25 11.25C9.9075 11.25 11.25 9.9075 11.25 8.25C11.25 6.5925 9.9075 5.25 8.25 5.25ZM14.955 7.5C14.61 4.3725 12.1275 1.89 9 1.545V0H7.5V1.545C4.3725 1.89 1.89 4.3725 1.545 7.5H0V9H1.545C1.89 12.1275 4.3725 14.61 7.5 14.955V16.5H9V14.955C12.1275 14.61 14.61 12.1275 14.955 9H16.5V7.5H14.955V7.5ZM8.25 13.5C5.3475 13.5 3 11.1525 3 8.25C3 5.3475 5.3475 3 8.25 3C11.1525 3 13.5 5.3475 13.5 8.25C13.5 11.1525 11.1525 13.5 8.25 13.5Z" fill="black"/>
</svg>
